<svg xmlns="http://www.w3.org/2000/svg" xmlns:xlink="http://www.w3.org/1999/xlink" version="1.0" id="Layer_1" x="0px" y="0px" viewBox="0.0 0.0 467.0 225.0" style="enable-background:new 0 0 467 225;" xml:space="preserve" width="455.2883145795778" height="219.64104238506974">
<style type="text/css">
	.st0{fill:#3C67B1;}
	.st1{fill:#F26727;}
</style>
<g>
	<path class="st0" d="M106.02,78.26c0,1.52-0.05,3.01-0.14,4.44c-0.09,1.43-0.4,3.31-0.91,5.65c-0.52,2.33-1.2,4.48-2.04,6.44   c-0.84,1.95-2.09,4.01-3.73,6.15c-1.64,2.15-3.59,3.94-5.85,5.37c-2.25,1.43-5.12,2.62-8.59,3.58c-3.48,0.95-7.37,1.43-11.69,1.43   H38.77c-2.53,0-4.59-2.09-4.59-4.66V93.53h0.02c5.3,0,11.97,0,18.96-0.01h20.84c2.67,0,4.68-1.34,5.68-3.76   c0.99-2.38,0.52-4.73-1.33-6.62C71.8,76.46,65.18,69.76,59.01,63.5c-1.42-1.44-3.19-2.03-5.12-1.71c-2.35,0.4-3.98,1.79-4.73,4.03   c-0.77,2.33-0.26,4.49,1.47,6.26c2.53,2.58,5.08,5.16,7.74,7.84l1.45,1.48H34.18l-0.01-32.84c0.01-2.57,2.06-4.65,4.58-4.65h34.3   c9.3,0,17.12,3.08,23.45,9.23C102.85,59.3,106.02,67.67,106.02,78.26z"/>
	<path class="st0" d="M106.02,148.03c0,1.52-0.05,3.01-0.14,4.44c-0.09,1.43-0.4,3.31-0.91,5.65c-0.52,2.33-1.2,4.48-2.04,6.44   c-0.84,1.95-2.09,4.01-3.73,6.15c-1.64,2.15-3.59,3.94-5.85,5.37c-2.25,1.43-5.12,2.62-8.59,3.58c-3.48,0.95-7.37,1.43-11.69,1.43   H38.77c-2.53,0-4.59-2.09-4.59-4.66v-6.66l-0.01-51.43c0.01-2.57,2.06-4.65,4.58-4.65h34.3c9.3,0,17.12,3.08,23.45,9.23   c2.72,2.65,4.87,5.7,6.42,9.16c-4.83,0-10.81,0-17.13,0.01H62.99c-2.67,0-4.68,1.33-5.69,3.76c-0.98,2.38-0.51,4.74,1.33,6.62   c6.5,6.63,13.13,13.36,19.33,19.64c1.17,1.19,2.57,1.8,4.1,1.8c0.34,0,0.67-0.03,1.02-0.09c2.35-0.4,3.98-1.79,4.73-4.04   c0.77-2.32,0.26-4.48-1.47-6.25c-2.53-2.59-5.08-5.16-7.75-7.85l-1.44-1.47h28.72C105.97,145.44,106.02,146.72,106.02,148.03z"/>
</g>
<g>
	<path class="st1" d="M122.76,43.88h24.62c13.94,0,20.85,7.11,20.85,16.72c0,7.84-4.96,12.25-11.24,13.72v0.63   c6.85,0.35,13.75,6.08,13.75,15.83c0,10.04-7.22,17.57-21.95,17.57h-26.03V43.88z M145.93,71.29c6.06,0,10.65-3.53,10.65-9.19   c0-4.97-3.55-8.59-10.39-8.59h-11.78v17.79H145.93z M146.94,98.59c8.45,0,11.96-3.59,11.96-8.72c0-5.76-4.46-10.17-11.65-10.17   h-12.84v18.89H146.94z"/>
	<path class="st1" d="M188.2,108.34h-11.37V43.88h11.12v24.33h0.56c2.23-5.48,6.94-8.85,14.35-8.85c10.02,0,16.61,6.52,16.61,18.19   v30.79h-11.37V79.32c0-6.52-3.52-10.33-9.48-10.33c-6.09,0-10.43,4.03-10.43,11.02V108.34z"/>
	<path class="st1" d="M225.23,94.78c0-10.89,8.95-13.69,18.31-14.7c8.51-0.91,11.93-1.07,11.93-4.34v-0.19   c0-4.75-2.89-7.46-8.16-7.46c-5.56,0-8.76,2.83-9.89,6.14l-10.61-1.51c2.51-8.81,10.3-13.35,20.44-13.35   c9.2,0,19.6,3.84,19.6,16.62v32.36h-10.93v-6.64h-0.38c-2.07,4.06-6.59,7.62-14.16,7.62C232.17,109.32,225.23,104.28,225.23,94.78z    M255.5,91v-5.7c-1.48,1.2-7.44,1.95-10.42,2.36c-5.09,0.72-8.89,2.55-8.89,6.93c0,4.19,3.39,6.36,8.13,6.36   C251.17,100.95,255.5,96.38,255.5,91z"/>
	<path class="st1" d="M274.76,59.99h11.02v8.06h0.5c1.76-5.6,6.38-8.75,11.9-8.75c1.26,0,3.05,0.13,4.08,0.31V70.1   c-0.97-0.31-3.36-0.66-5.28-0.66c-6.25,0-10.87,4.34-10.87,10.48v28.43h-11.37V59.99z"/>
	<path class="st1" d="M303.12,94.78c0-10.89,8.95-13.69,18.31-14.7c8.51-0.91,11.93-1.07,11.93-4.34v-0.19   c0-4.75-2.89-7.46-8.16-7.46c-5.56,0-8.76,2.83-9.89,6.14l-10.61-1.51c2.51-8.81,10.3-13.35,20.44-13.35   c9.2,0,19.6,3.84,19.6,16.62v32.36H333.8v-6.64h-0.38c-2.07,4.06-6.59,7.62-14.16,7.62C310.06,109.32,303.12,104.28,303.12,94.78z    M333.39,91v-5.7c-1.48,1.2-7.44,1.95-10.42,2.36c-5.09,0.72-8.89,2.55-8.89,6.93c0,4.19,3.39,6.36,8.13,6.36   C329.06,100.95,333.39,96.38,333.39,91z"/>
	<path class="st1" d="M376.74,68.81h-9.51V93.8c0,4.6,2.29,5.6,5.15,5.6c1.41,0,2.7-0.28,3.33-0.44l1.92,8.91   c-1.22,0.41-3.45,1.04-6.69,1.13c-8.54,0.25-15.14-4.22-15.07-13.32V68.81h-6.85v-8.81h6.85V48.41h11.37v11.58h9.51V68.81z"/>
</g>
<g>
	<g>
		<path class="st1" d="M166.13,138.59c-1.29-7.35-7.12-11.57-14.56-11.57c-10.02,0-17.08,7.71-17.08,21.56    c0,14.09,7.12,21.56,17.05,21.56c7.33,0,13.19-4.05,14.59-11.24l11.19,0.06c-1.71,11.72-11.36,21.17-25.93,21.17    c-16.15,0-28.05-11.72-28.05-31.54c0-19.85,12.05-31.54,28.05-31.54c13.58,0,24.05,7.92,25.93,21.56H166.13z"/>
		<path class="st1" d="M181.69,156.43c0-14.27,8.55-23.81,22.01-23.81s22.01,9.54,22.01,23.81c0,14.24-8.55,23.75-22.01,23.75    S181.69,170.67,181.69,156.43z M214.73,156.4c0-8.43-3.65-15.17-10.98-15.17c-7.45,0-11.1,6.75-11.1,15.17    c0,8.42,3.65,15.08,11.1,15.08C211.08,171.48,214.73,164.82,214.73,156.4z"/>
		<path class="st1" d="M242.32,179.27h-10.83v-46.05h10.35v7.83h0.54c2.09-5.13,6.82-8.43,13.7-8.43c9.48,0,15.76,6.3,15.73,17.33    v29.32h-10.83v-27.64c0-6.15-3.35-9.83-8.94-9.83c-5.71,0-9.72,3.84-9.72,10.49V179.27z"/>
		<path class="st1" d="M290.29,179.27h-10.83v-46.05h10.35v7.83h0.54c2.09-5.13,6.82-8.43,13.7-8.43c9.48,0,15.76,6.3,15.73,17.33    v29.32h-10.83v-27.64c0-6.15-3.35-9.83-8.94-9.83c-5.71,0-9.72,3.84-9.72,10.49V179.27z"/>
		<path class="st1" d="M325.47,156.52c0-14.21,8.58-23.9,21.74-23.9c11.31,0,21,7.11,21,23.27v3.33h-32    c0.09,7.89,4.73,12.5,11.72,12.5c4.67,0,8.25-2.04,9.72-5.94l10.11,1.14c-1.91,8.01-9.27,13.25-19.98,13.25    C333.94,180.17,325.47,170.97,325.47,156.52z M357.83,151.9c-0.06-6.27-4.25-10.82-10.47-10.82c-6.46,0-10.8,4.95-11.12,10.82    H357.83z"/>
		<path class="st1" d="M372.02,156.43c0-14.06,8.49-23.81,21.95-23.81c11.21,0,18.99,6.57,19.74,16.55h-10.35    c-0.84-4.44-4.04-7.8-9.24-7.8c-6.67,0-11.13,5.58-11.13,14.87c0,9.42,4.37,15.08,11.13,15.08c4.75,0,8.31-2.85,9.24-7.8h10.35    c-0.78,9.77-8.13,16.64-19.68,16.64C380.3,180.17,372.02,170.37,372.02,156.43z"/>
		<path class="st1" d="M442.19,141.61h-9.06v23.81c0,4.38,2.18,5.34,4.91,5.34c1.35,0,2.57-0.27,3.17-0.42l1.82,8.49    c-1.17,0.39-3.29,0.99-6.37,1.08c-8.13,0.24-14.42-4.02-14.36-12.68v-25.61h-6.52v-8.4h6.52v-11.03h10.83v11.03h9.06V141.61z"/>
	</g>
</g>
</svg>