<svg width="83" height="32" viewBox="0 0 83 32" fill="none" xmlns="http://www.w3.org/2000/svg">
<path d="M14.5858 8.92642C14.5858 9.23292 14.5757 9.53337 14.5574 9.82172C14.5391 10.1101 14.4762 10.4892 14.3727 10.961C14.2671 11.4308 14.1291 11.8644 13.9585 12.2596C13.788 12.6528 13.5343 13.0682 13.2013 13.4997C12.8684 13.9332 12.4726 14.2941 12.0138 14.5825C11.557 14.8708 10.9744 15.1108 10.27 15.3044C9.56351 15.4959 8.77382 15.5927 7.89685 15.5927H0.933818C0.420218 15.5927 0.00203047 15.1713 0.00203047 14.6531V12.0055H0.00609064C1.08201 12.0055 2.43605 12.0055 3.85504 12.0035H8.08564C8.62766 12.0035 9.0357 11.7333 9.2387 11.2453C9.43968 10.7654 9.34427 10.2915 8.96871 9.91044C7.63903 8.56347 6.29515 7.21246 5.04261 5.95018C4.75435 5.65981 4.39503 5.54084 4.00324 5.60537C3.52618 5.68603 3.19528 5.96631 3.04303 6.41799C2.88671 6.88782 2.99025 7.32336 3.34144 7.68027C3.85504 8.20051 4.3727 8.72075 4.91269 9.26115L5.20705 9.55958H0.00203047L0 2.93764C0.00203004 2.41942 0.418188 2 0.929758 2H7.89279C9.78072 2 11.3682 2.62106 12.6532 3.86116C13.9423 5.10328 14.5858 6.79103 14.5858 8.92642Z" fill="#3C67B1"/>
<path d="M14.5858 22.9947C14.5858 23.3012 14.5757 23.6017 14.5574 23.89C14.5391 24.1784 14.4762 24.5574 14.3727 25.0293C14.2671 25.4991 14.1291 25.9326 13.9585 26.3279C13.788 26.7211 13.5343 27.1365 13.2013 27.568C12.8684 28.0015 12.4726 28.3624 12.0138 28.6508C11.557 28.9391 10.9744 29.1791 10.27 29.3727C9.56351 29.5642 8.77382 29.661 7.89685 29.661H0.933818C0.420218 29.661 0.00203047 29.2396 0.00203047 28.7214V27.3784L0 17.0079C0.00203004 16.4897 0.418188 16.0703 0.929758 16.0703H7.89279C9.78072 16.0703 11.3682 16.6914 12.6532 17.9315C13.2054 18.4658 13.6419 19.0808 13.9565 19.7785C12.976 19.7785 11.762 19.7785 10.4791 19.7805H5.85057C5.30855 19.7805 4.90051 20.0487 4.69548 20.5387C4.49653 21.0186 4.59195 21.4945 4.96547 21.8736C6.285 23.2105 7.63091 24.5675 8.88954 25.8338C9.12705 26.0738 9.41126 26.1968 9.72185 26.1968C9.79087 26.1968 9.85787 26.1908 9.92892 26.1787C10.406 26.098 10.7369 25.8177 10.8891 25.364C11.0454 24.8962 10.9419 24.4607 10.5907 24.1038C10.0771 23.5815 9.55945 23.0633 9.01743 22.5209L8.7251 22.2244H14.5554C14.5757 22.4725 14.5858 22.7306 14.5858 22.9947Z" fill="#3C67B1"/>
<path d="M17 2H21.998C24.8278 2 26.2306 3.43368 26.2306 5.37146C26.2306 6.95234 25.2237 7.84158 23.9488 8.138V8.26503C25.3394 8.33561 26.7401 9.49102 26.7401 11.457C26.7401 13.4815 25.2744 14.9999 22.2842 14.9999H17V2ZM21.7036 7.52702C22.9338 7.52702 23.8656 6.81522 23.8656 5.67393C23.8656 4.67176 23.1449 3.94182 21.7564 3.94182H19.365V7.52904H21.7036V7.52702ZM21.9086 13.0319C23.624 13.0319 24.3366 12.308 24.3366 11.2735C24.3366 10.1121 23.4312 9.22284 21.9716 9.22284H19.365V13.0319H21.9086Z" fill="#F26727"/>
<path d="M30.2847 14.9979H27.9766V2H30.234V6.90596H30.3476C30.8003 5.80096 31.7565 5.12143 33.2608 5.12143C35.2949 5.12143 36.6326 6.43614 36.6326 8.78931V14.9979H34.3245V9.14621C34.3245 7.8315 33.6099 7.06324 32.4 7.06324C31.1637 7.06324 30.2827 7.87587 30.2827 9.28535V14.9979H30.2847Z" fill="#F26727"/>
<path d="M37.8018 12.2632C37.8018 10.0673 39.6186 9.50272 41.5188 9.29906C43.2463 9.11557 43.9406 9.08331 43.9406 8.42394V8.38562C43.9406 7.42782 43.3539 6.88137 42.2841 6.88137C41.1554 6.88137 40.5058 7.45202 40.2764 8.11946L38.1225 7.81498C38.632 6.0385 40.2134 5.12305 42.2719 5.12305C44.1395 5.12305 46.2508 5.89735 46.2508 8.47435V14.9995H44.0319V13.6606H43.9548C43.5346 14.4793 42.617 15.1971 41.0803 15.1971C39.2106 15.1951 37.8018 14.1788 37.8018 12.2632ZM43.9467 11.501V10.3516C43.6462 10.5936 42.4363 10.7448 41.8314 10.8275C40.7981 10.9727 40.0267 11.3417 40.0267 12.2249C40.0267 13.0698 40.7149 13.5073 41.6771 13.5073C43.0677 13.5073 43.9467 12.5858 43.9467 11.501Z" fill="#F26727"/>
<path d="M47.8566 5.24851H50.0937V6.87375H50.1952C50.5525 5.74455 51.4904 5.10938 52.6109 5.10938C52.8667 5.10938 53.2301 5.13559 53.4392 5.17188V7.28711C53.2423 7.2246 52.7571 7.15403 52.3673 7.15403C51.0986 7.15403 50.1607 8.02916 50.1607 9.26724V14.9999H47.8525V5.24851H47.8566Z" fill="#F26727"/>
<path d="M53.6143 12.2632C53.6143 10.0673 55.4311 9.50272 57.3313 9.29906C59.0588 9.11557 59.7531 9.08331 59.7531 8.42394V8.38562C59.7531 7.42782 59.1664 6.88137 58.0966 6.88137C56.9679 6.88137 56.3183 7.45202 56.0889 8.11946L53.935 7.81498C54.4445 6.0385 56.0259 5.12305 58.0844 5.12305C59.952 5.12305 62.0633 5.89735 62.0633 8.47435V14.9995H59.8424V13.6606H59.7653C59.3451 14.4793 58.4275 15.1971 56.8907 15.1971C55.0231 15.1951 53.6143 14.1788 53.6143 12.2632ZM59.7592 11.501V10.3516C59.4587 10.5936 58.2488 10.7448 57.6439 10.8275C56.6106 10.9727 55.8392 11.3417 55.8392 12.2249C55.8392 13.0698 56.5274 13.5073 57.4896 13.5073C58.8802 13.5073 59.7592 12.5858 59.7592 11.501Z" fill="#F26727"/>
<path d="M68.5589 7.02659H66.6283V12.0656C66.6283 12.9932 67.0932 13.1948 67.6738 13.1948C67.96 13.1948 68.2219 13.1384 68.3498 13.1061L68.7396 14.9028C68.4919 14.9854 68.0392 15.1125 67.3815 15.1306C65.6478 15.181 64.308 14.2797 64.3222 12.4447V7.02659H62.9316V5.25012H64.3222V2.91309H66.6304V5.24811H68.5609V7.02659H68.5589Z" fill="#F26727"/>
<path d="M25.6865 20.9928C25.4247 19.5107 24.2411 18.6598 22.7308 18.6598C20.6967 18.6598 19.2635 20.2145 19.2635 23.0072C19.2635 25.8483 20.7089 27.3546 22.7247 27.3546C24.2127 27.3546 25.4023 26.538 25.6865 25.0882L27.9581 25.1003C27.611 27.4635 25.652 29.369 22.6943 29.369C19.4157 29.369 17 27.0058 17 23.0092C17 19.0066 19.4462 16.6494 22.6943 16.6494C25.451 16.6494 27.5765 18.2464 27.9581 20.9968H25.6865V20.9928Z" fill="#F26727"/>
<path d="M28.8457 24.5902C28.8457 21.7127 30.5814 19.7891 33.3138 19.7891C36.0462 19.7891 37.7819 21.7127 37.7819 24.5902C37.7819 27.4616 36.0462 29.3792 33.3138 29.3792C30.5814 29.3792 28.8457 27.4616 28.8457 24.5902ZM35.5529 24.5841C35.5529 22.8843 34.812 21.5252 33.324 21.5252C31.8116 21.5252 31.0706 22.8863 31.0706 24.5841C31.0706 26.282 31.8116 27.6249 33.324 27.6249C34.812 27.6249 35.5529 26.282 35.5529 24.5841Z" fill="#F26727"/>
<path d="M41.1526 29.1957H38.9541V19.91H41.0552V21.4889H41.1648C41.5891 20.4545 42.5493 19.7891 43.946 19.7891C45.8704 19.7891 47.1453 21.0594 47.1392 23.2835V29.1957H44.9407V23.6223C44.9407 22.3822 44.2606 21.6401 43.1258 21.6401C41.9667 21.6401 41.1526 22.4144 41.1526 23.7554V29.1957Z" fill="#F26727"/>
<path d="M50.8919 29.1957H48.6934V19.91H50.7945V21.4889H50.9041C51.3284 20.4545 52.2886 19.7891 53.6852 19.7891C55.6097 19.7891 56.8846 21.0594 56.8785 23.2835V29.1957H54.6799V23.6223C54.6799 22.3822 53.9999 21.6401 52.8651 21.6401C51.7059 21.6401 50.8919 22.4144 50.8919 23.7554V29.1957Z" fill="#F26727"/>
<path d="M58.0332 24.6083C58.0332 21.743 59.775 19.7891 62.4465 19.7891C64.7425 19.7891 66.7096 21.2227 66.7096 24.4813V25.1528H60.2135C60.2317 26.7437 61.1737 27.6733 62.5927 27.6733C63.5407 27.6733 64.2674 27.2619 64.5659 26.4755L66.6182 26.7054C66.2305 28.3206 64.7364 29.3772 62.5622 29.3772C59.7526 29.3772 58.0332 27.5221 58.0332 24.6083ZM64.6024 23.6767C64.5902 22.4124 63.7396 21.495 62.477 21.495C61.1655 21.495 60.2845 22.4931 60.2196 23.6767H64.6024Z" fill="#F26727"/>
<path d="M67.4834 24.5902C67.4834 21.7551 69.2069 19.7891 71.9393 19.7891C74.215 19.7891 75.7944 21.1139 75.9466 23.1262H73.8455C73.675 22.231 73.0254 21.5534 71.9698 21.5534C70.6157 21.5534 69.7104 22.6786 69.7104 24.5519C69.7104 26.4513 70.5975 27.5926 71.9698 27.5926C72.9341 27.5926 73.6567 27.018 73.8455 26.0198H75.9466C75.7883 27.9899 74.2962 29.3752 71.9515 29.3752C69.1643 29.3772 67.4834 27.4011 67.4834 24.5902Z" fill="#F26727"/>
<path d="M81.7285 21.6024H79.8893V26.4035C79.8893 27.2867 80.3319 27.4803 80.8861 27.4803C81.1601 27.4803 81.4078 27.4259 81.5296 27.3956L81.899 29.1076C81.6615 29.1862 81.2312 29.3072 80.6059 29.3253C78.9555 29.3737 77.6786 28.5147 77.6908 26.7685V21.6044H76.3672V19.9106H77.6908V17.6865H79.8893V19.9106H81.7285V21.6024Z" fill="#F26727"/>
</svg>
